<?xml version="1.0" standalone="no"?>
<!DOCTYPE svg PUBLIC "-//W3C//DTD SVG 20010904//EN"
 "http://www.w3.org/TR/2001/REC-SVG-20010904/DTD/svg10.dtd">
<svg version="1.0" xmlns="http://www.w3.org/2000/svg"
 width="1536.000000pt" height="1536.000000pt" viewBox="0 0 1536.000000 1536.000000"
 preserveAspectRatio="xMidYMid meet">
<metadata>
Created by potrace 1.14, written by Peter Selinger 2001-2017
</metadata>
<g transform="translate(0.000000,1536.000000) scale(0.100000,-0.100000)"
fill="#000000" stroke="none">
<path d="M165 15346 c-40 -17 -84 -63 -101 -103 -12 -27 -14 -261 -14 -1350 0
-1304 0 -1317 20 -1359 12 -24 39 -54 62 -70 l41 -29 2415 -3 c2281 -2 2417
-3 2435 -20 18 -16 -99 -17 -2415 -22 l-2434 -5 -36 -24 c-19 -13 -46 -40 -59
-59 l-24 -36 -3 -5780 -2 -5780 20 -42 c12 -24 38 -54 62 -70 l41 -29 3173 -3
3173 -2 7 -23 c5 -12 8 -24 9 -27 0 -3 22 -42 48 -86 42 -73 135 -179 209
-240 33 -28 161 -104 174 -104 6 0 15 -5 22 -12 10 -10 23 -14 70 -20 6 -1 12
-4 12 -8 0 -4 6 -7 13 -8 6 -1 26 -4 42 -7 17 -4 41 -7 55 -9 14 -1 30 -5 35
-8 15 -9 4236 -3 4265 6 14 4 30 8 35 9 6 2 15 5 20 8 6 3 17 5 25 4 8 0 17 3
20 7 3 4 15 9 25 11 11 1 26 6 33 10 6 5 12 5 12 1 0 -4 8 0 17 9 10 8 20 16
23 16 13 0 46 16 62 30 10 9 22 16 26 16 28 0 191 154 244 230 44 63 90 145
81 145 -3 0 2 9 12 20 10 11 14 21 9 22 -5 2 698 5 1561 8 l1570 5 35 25 c19
13 43 34 52 45 16 19 17 355 18 5841 l0 5820 -32 32 c-71 68 238 62 -3414 62
-3303 0 -3307 0 -3289 20 18 20 36 20 3319 22 l3301 3 36 24 c20 14 46 39 58
56 l21 31 0 1352 0 1351 -32 37 c-18 21 -51 45 -73 55 -39 18 -307 19 -7550
18 -6205 0 -7515 -2 -7540 -13z m6420 -88 c-48 -50 -79 -102 -92 -151 -9 -37
-10 -2188 0 -2242 9 -53 47 -127 81 -161 11 -11 41 -35 65 -52 47 -34 48 -41
3 -18 -42 22 -121 111 -145 164 l-22 47 0 1135 0 1135 22 48 c12 26 27 47 33
47 5 0 10 6 10 14 0 14 74 86 88 86 5 0 -15 -24 -43 -52z m493 6 c49 -52 92
-134 92 -178 0 -37 -10 -28 -17 16 -7 49 -58 132 -105 173 -23 19 -36 35 -28
35 7 0 33 -21 58 -46z m102 -476 c0 -144 -3 -258 -7 -254 -10 10 -11 516 -1
516 5 0 8 -118 8 -262z m0 -694 c0 -157 -3 -283 -7 -281 -6 4 -10 552 -4 565
8 16 10 -41 11 -284z m2658 280 c12 -4 22 -10 22 -15 0 -5 -12 -6 -27 -2 -50
14 -142 6 -199 -17 -30 -12 -54 -27 -54 -32 0 -5 -4 -7 -9 -4 -5 3 -32 -17
-61 -44 -29 -28 -55 -49 -57 -47 -7 7 116 117 131 117 8 0 21 6 29 14 29 29
161 47 225 30z m-6028 -13 c0 -5 -16 -12 -35 -15 -19 -4 -35 -11 -35 -17 0 -6
-4 -8 -9 -5 -14 9 -131 -96 -131 -117 0 -5 -7 -16 -16 -25 -15 -15 -16 -14 -9
8 19 64 151 167 228 179 4 0 7 -3 7 -8z m510 -274 c0 -5 -42 33 -94 84 -52 52
-102 100 -110 107 -9 7 -16 18 -16 25 0 6 50 -38 110 -98 61 -60 110 -114 110
-118z m5058 40 c-40 -41 -75 -72 -78 -70 -5 5 134 143 144 143 3 0 -26 -33
-66 -73z m-99 -94 c-24 -30 -109 -113 -117 -113 -3 0 23 29 58 65 63 63 86 83
59 48z m-5727 -49 c1 -16 4 -33 7 -39 3 -5 7 -19 8 -29 4 -22 37 -79 60 -101
11 -12 11 -15 1 -15 -31 0 -88 125 -88 193 0 38 9 31 12 -9z m5354 -330 c-25
-26 -46 -44 -46 -40 0 10 82 97 87 92 3 -2 -16 -26 -41 -52z m-1726 -379 c0
-201 -3 -365 -8 -365 -4 0 -7 161 -6 358 2 382 1 372 9 372 3 0 5 -164 5 -365z
m2671 348 c-15 -26 -1140 -1148 -1145 -1142 -3 3 203 213 457 467 254 254 462
462 461 462 -2 0 231 230 234 230 1 0 -2 -8 -7 -17z m-1059 -82 c-33 -34 -63
-61 -68 -61 -5 0 20 29 56 65 35 35 66 63 68 60 2 -2 -23 -31 -56 -64z m-4712
-181 c8 -5 11 -12 8 -16 -8 -7 -258 236 -258 251 0 5 53 -43 118 -108 64 -65
124 -122 132 -127z m1150 -177 c223 -225 414 -419 424 -433 36 -45 56 -116 56
-195 0 -41 -3 -75 -8 -75 -4 0 -6 27 -5 61 3 83 -25 167 -78 234 -24 30 -50
54 -58 55 -8 0 -12 2 -9 5 2 3 -56 65 -130 138 -74 72 -142 140 -151 150 -9
10 -117 119 -240 243 -123 123 -220 224 -215 224 5 0 191 -183 414 -407z
m3412 207 c-40 -39 -72 -67 -72 -63 0 11 133 143 139 138 2 -3 -28 -37 -67
-75z m-4232 -366 c169 -168 313 -310 321 -315 8 -5 11 -9 8 -9 -3 0 44 -49
105 -110 61 -60 107 -110 102 -110 -5 0 -200 191 -434 425 -234 234 -421 425
-417 425 5 0 147 -138 315 -306z m4092 226 c-33 -33 -64 -60 -68 -60 -5 0 20
29 56 65 35 35 66 63 68 60 3 -2 -23 -31 -56 -65z m-184 -185 c-64 -63 -113
-117 -110 -120 3 -3 0 -5 -8 -5 -7 0 -25 -15 -41 -32 -16 -18 -29 -29 -29 -24
0 11 282 296 294 296 4 0 -43 -52 -106 -115z m-1168 -268 c-16 -41 -36 -69
-79 -109 -74 -69 -137 -99 -216 -106 -66 -5 -165 13 -165 30 0 6 8 7 18 3 47
-19 131 -25 185 -13 47 10 117 40 117 50 0 5 6 8 12 8 18 0 82 75 107 124 18
38 25 58 32 106 1 8 4 3 6 -11 2 -14 -5 -51 -17 -82z m928 28 c-25 -24 -51
-51 -56 -61 -6 -11 -14 -15 -18 -11 -4 4 19 34 51 67 32 33 61 57 64 54 3 -3
-15 -25 -41 -49z m-104 -145 c-20 -58 -32 -144 -23 -168 5 -12 4 -24 0 -26
-26 -16 -18 136 10 207 18 42 28 32 13 -13z m6 -270 c11 -20 8 -20 -1155 -20
-1163 0 -1166 0 -1155 20 11 20 21 20 1155 20 1134 0 1144 0 1155 -20z m-2822
-132 c2 -5 10 -8 18 -8 8 0 14 -4 14 -10 0 -5 3 -9 8 -8 4 1 16 -3 28 -9 11
-7 33 -14 49 -17 32 -6 46 -16 22 -16 -54 0 -175 69 -198 113 -10 18 -6 17 22
-8 19 -16 35 -33 37 -37z m462 43 c-19 -36 -81 -78 -141 -96 -32 -10 -62 -15
-66 -12 -3 4 1 7 10 7 8 0 28 5 44 12 15 6 30 12 33 13 24 7 80 41 80 48 0 7
39 46 48 47 1 0 -2 -9 -8 -19z m2910 -22 c-45 -41 -111 -78 -140 -79 -8 0 8
11 35 24 28 14 68 40 90 60 56 49 69 45 15 -5z m-450 -13 c7 -9 19 -16 26 -16
8 0 14 -3 14 -8 0 -9 47 -30 77 -35 12 -2 26 -7 30 -11 13 -13 -58 5 -103 26
-23 10 -54 33 -70 50 -22 23 -24 28 -8 20 11 -6 26 -18 34 -26z m290 -66 c0
-5 -4 -10 -10 -10 -5 0 -10 5 -10 10 0 6 5 10 10 10 6 0 10 -4 10 -10z m-1652
-255 c-3 -3 -18 -8 -34 -11 -22 -3 -25 -2 -14 6 15 10 58 14 48 5z m32 -5 c0
-5 -2 -10 -4 -10 -3 0 -8 5 -11 10 -3 6 -1 10 4 10 6 0 11 -4 11 -10z m217 4
c-3 -3 -12 -4 -19 -1 -8 3 -5 6 6 6 11 1 17 -2 13 -5z m83 -4 c0 -5 -14 -7
-32 -3 -46 8 -48 13 -5 13 21 0 37 -4 37 -10z m-400 -9 c0 -5 -8 -8 -17 -7
-10 2 -40 -3 -68 -11 -27 -8 -61 -16 -74 -19 -42 -9 -163 -63 -236 -106 -69
-40 -132 -87 -190 -140 -16 -15 -33 -28 -37 -28 -5 0 -8 -7 -8 -15 0 -8 -4
-15 -8 -15 -11 0 -122 -136 -122 -149 0 -6 -4 -11 -8 -11 -10 0 -102 -180
-102 -198 0 -7 -4 -12 -10 -12 -5 0 -9 -3 -8 -7 1 -5 -5 -33 -14 -63 -10 -30
-19 -68 -22 -84 -3 -16 -8 -31 -11 -34 -20 -20 25 156 59 228 43 94 106 203
145 250 60 75 163 180 175 180 6 0 26 15 44 34 17 18 74 55 125 81 50 26 97
51 103 56 18 15 95 41 174 60 88 20 110 22 110 10z m520 -6 c98 -23 190 -55
190 -67 0 -6 -8 -7 -17 -3 -47 18 -161 54 -188 60 -17 3 -46 9 -65 14 -28 7
-30 9 -10 10 14 0 54 -6 90 -14z m322 -135 c27 -17 52 -30 56 -30 4 0 25 -17
47 -37 22 -21 61 -55 87 -77 26 -21 71 -70 100 -110 29 -39 56 -74 61 -77 14
-10 107 -187 107 -204 0 -3 -4 -5 -10 -5 -5 0 -10 9 -10 19 0 11 -7 26 -15 35
-9 8 -16 19 -15 23 0 18 -12 43 -21 43 -5 0 -9 5 -9 11 0 36 -219 299 -248
299 -7 0 -12 4 -12 8 0 11 -111 88 -122 85 -4 -2 -8 2 -8 7 0 6 -5 10 -11 10
-6 0 -17 7 -26 15 -8 8 -18 13 -22 11 -3 -2 -18 4 -31 15 l-25 20 39 -16 c22
-8 61 -29 88 -45z m-2629 -117 c3 -5 -489 -8 -1093 -8 -604 0 -1096 3 -1093 8
2 4 494 7 1093 7 599 0 1091 -3 1093 -7z m6111 1 c9 -3 16 -11 16 -16 0 -7 -4
-7 -12 0 -9 7 -372 10 -1105 9 -600 -1 -1089 1 -1086 6 5 8 2164 10 2187 1z
m-8314 -9 c0 -2 -19 -9 -41 -15 -23 -6 -51 -20 -62 -31 -11 -10 -25 -19 -30
-19 -10 0 -77 -64 -77 -74 0 -3 -8 -15 -17 -26 -10 -11 -17 -24 -17 -28 1 -4
-3 -18 -9 -32 -5 -14 -14 -43 -18 -65 -7 -37 -8 -35 -4 12 2 29 13 72 23 96
22 50 96 128 144 153 49 25 108 41 108 29z m2314 -22 c44 -23 130 -112 154
-159 20 -40 42 -156 27 -142 -4 4 -9 22 -10 40 -1 18 -10 51 -20 73 -10 22
-19 43 -19 46 -1 3 -20 27 -43 53 -39 44 -148 110 -164 100 -4 -2 -11 1 -15 7
-9 14 49 3 90 -18z m3754 8 c-25 -10 -61 -29 -80 -42 -41 -29 -97 -90 -98
-106 0 -7 -7 -16 -16 -21 -9 -5 -15 -12 -15 -15 1 -4 -1 -17 -4 -30 -3 -12 -7
-35 -9 -51 -3 -16 -8 -31 -12 -35 -10 -9 6 90 21 125 12 30 43 68 102 127 27
26 112 66 143 66 8 0 -6 -8 -32 -18z m2362 -11 c35 -18 91 -70 75 -70 -4 0
-13 7 -19 15 -6 8 -42 31 -81 50 -39 20 -57 33 -40 29 17 -4 46 -15 65 -24z
m146 -152 c26 -51 30 -78 13 -78 -5 0 -8 4 -4 10 6 10 -38 105 -55 115 -5 3
-10 11 -10 17 0 20 31 -16 56 -64z m34 -108 c0 -11 -2 -20 -4 -20 -2 0 -6 9
-9 20 -3 11 -1 20 4 20 5 0 9 -9 9 -20z m-2767 -87 c2 -24 0 -43 -4 -43 -5 0
-9 21 -9 47 0 56 6 54 13 -4z m-3346 -16 c-8 -76 -44 -147 -102 -199 -52 -47
-104 -79 -127 -77 -7 0 -1 5 15 11 15 5 27 14 27 19 0 6 4 8 9 5 11 -7 111 83
111 100 0 8 4 14 9 14 14 0 49 108 47 145 -1 19 3 35 8 35 5 0 6 -24 3 -53z
m6108 -23 c-3 -24 -11 -44 -17 -44 -5 0 -7 8 -4 17 4 9 10 38 14 63 3 25 8 37
10 26 2 -10 1 -38 -3 -62z m-8872 -11 c-3 -7 0 -13 7 -13 6 0 9 -4 6 -8 -7
-11 31 -80 66 -121 16 -18 54 -48 85 -67 31 -19 53 -34 47 -34 -16 0 -108 57
-138 86 -33 32 -86 138 -86 174 0 19 3 21 9 11 5 -8 7 -20 4 -28z m4568 14
c19 -2 40 -7 46 -10 6 -4 23 -8 37 -9 14 -1 26 -6 26 -11 0 -4 5 -5 10 -2 6 3
10 3 10 -2 0 -4 12 -14 28 -20 15 -7 42 -26 60 -43 18 -16 37 -30 42 -30 5 0
12 -9 15 -20 3 -11 10 -20 14 -20 14 0 80 -141 87 -185 4 -22 7 -1152 9 -2512
1 -2596 0 -2506 44 -2589 25 -48 87 -112 134 -138 131 -73 291 -52 397 53 31
31 64 72 73 91 20 45 35 100 31 123 -1 9 1 17 4 17 4 0 7 20 7 45 0 25 -4 45
-9 45 -5 0 -4 6 2 13 6 7 7 18 2 26 -4 8 -6 20 -3 27 8 21 9 104 1 104 -4 0
-4 9 0 19 4 11 5 205 2 431 -3 227 -2 413 1 415 3 2 2 29 -1 59 -4 33 -2 60 4
66 6 6 6 10 0 10 -10 0 -10 931 0 949 4 6 2 11 -4 11 -6 0 -9 4 -6 9 3 5 8 26
10 47 7 58 14 85 27 100 6 8 9 14 5 14 -4 0 1 11 10 25 9 14 14 25 11 25 -5 0
29 41 85 101 14 16 31 29 37 29 6 0 11 4 11 10 0 5 11 12 25 16 14 3 25 10 25
15 0 5 4 9 9 9 5 0 22 5 38 12 41 16 63 21 110 22 24 1 43 5 43 9 0 5 4 6 9 3
5 -3 40 -6 77 -7 38 -1 86 -8 107 -15 20 -7 38 -13 40 -14 17 -2 67 -26 67
-33 0 -4 4 -6 9 -3 5 3 35 -21 67 -53 72 -71 85 -87 77 -95 -4 -3 -2 -6 3 -6
12 0 37 -56 55 -120 10 -35 13 -314 14 -1205 1 -1115 2 -1162 20 -1212 10 -29
23 -53 28 -53 4 0 6 -4 3 -9 -8 -13 90 -109 133 -130 127 -64 274 -47 378 44
42 36 93 107 93 129 0 9 4 16 9 16 6 0 8 9 6 20 -2 11 -1 20 3 20 4 0 7 30 7
68 0 37 3 79 7 95 4 15 3 27 0 27 -10 0 -6 95 4 111 4 7 3 10 -2 6 -10 -6 -10
65 0 82 4 6 4 11 -1 11 -4 0 -8 31 -8 70 0 38 4 70 8 70 5 0 5 6 1 12 -11 17
-11 218 0 218 5 0 3 6 -3 14 -8 9 -8 16 -2 20 6 4 7 16 3 29 -9 26 -6 902 2
962 4 22 10 49 15 60 5 11 17 39 26 63 10 23 22 42 27 42 4 0 8 6 8 12 0 14
119 128 133 128 5 0 22 9 38 21 16 11 33 18 38 14 5 -3 13 0 16 6 4 5 13 8 21
5 8 -3 14 -2 14 3 0 17 266 18 288 1 1 -2 6 -3 11 -4 5 0 12 -4 16 -8 4 -4 13
-4 21 -1 8 3 14 0 14 -7 0 -6 5 -8 10 -5 6 3 10 2 10 -3 0 -6 11 -12 23 -16
35 -8 149 -124 173 -176 31 -63 43 -99 50 -145 9 -62 11 -828 1 -847 -4 -10
-4 -18 2 -18 5 0 6 -14 1 -35 -4 -19 -5 -35 -1 -35 10 0 8 -31 -3 -48 -4 -6
-3 -12 1 -12 10 0 9 -83 -1 -99 -4 -6 -3 -11 2 -11 6 0 7 -14 2 -34 -4 -19 -4
-40 1 -47 4 -7 3 -21 -2 -31 -5 -10 -6 -18 -1 -18 8 0 7 -63 -2 -86 -2 -6 0
-17 4 -24 5 -8 4 -22 -1 -32 -5 -10 -6 -18 -2 -18 10 0 9 -83 -1 -99 -4 -6 -3
-11 2 -11 6 0 7 -14 2 -35 -4 -19 -5 -35 -1 -35 7 0 7 -35 1 -50 -1 -3 -2 -9
0 -15 1 -5 3 -41 5 -80 2 -38 10 -87 19 -107 9 -21 14 -38 11 -38 -6 0 6 -16
38 -51 9 -10 17 -23 17 -27 0 -5 11 -15 25 -22 14 -7 25 -17 25 -22 0 -4 7 -8
15 -8 8 0 15 -4 15 -9 0 -14 99 -44 152 -47 56 -2 140 14 150 30 4 6 8 8 8 3
0 -4 13 -1 29 7 39 21 132 118 127 132 -3 7 2 15 10 18 8 3 14 14 14 25 0 11
4 22 8 25 12 7 14 66 16 576 2 435 6 510 28 510 5 0 7 4 3 10 -6 9 31 96 50
116 5 6 22 24 36 40 43 49 82 79 131 103 26 12 50 22 53 22 2 0 22 5 42 12 21
7 57 13 80 12 24 0 43 5 43 10 0 7 3 7 8 0 4 -5 16 -10 27 -10 11 0 23 5 27
10 5 7 8 6 8 0 0 -6 10 -12 23 -12 53 -4 77 -8 77 -15 0 -4 6 -5 13 -2 16 6
126 -51 148 -77 9 -11 19 -19 23 -19 12 0 64 -65 87 -110 13 -25 27 -47 32
-48 4 -2 5 -8 1 -13 -3 -5 -2 -15 3 -21 4 -7 8 -15 9 -18 16 -91 21 -200 11
-218 -5 -6 -5 -12 0 -12 9 0 10 -117 0 -126 -4 -4 -4 -11 0 -17 8 -13 7 -312
-1 -326 -4 -6 -4 -11 1 -11 9 0 10 -117 0 -126 -4 -4 -4 -11 0 -17 8 -13 7
-312 -1 -326 -4 -6 -4 -11 1 -11 10 0 9 -92 -1 -108 -4 -7 -4 -12 1 -12 10 0
9 -132 -1 -148 -4 -7 -4 -12 1 -12 10 0 9 -133 -1 -149 -4 -6 -4 -11 1 -11 10
0 9 -132 -1 -148 -4 -7 -4 -12 1 -12 10 0 8 -333 -1 -349 -4 -6 -4 -11 1 -11
9 0 10 -117 0 -126 -4 -4 -4 -11 0 -17 8 -13 7 -312 -1 -326 -4 -6 -4 -11 1
-11 9 0 10 -117 0 -126 -4 -4 -4 -11 0 -17 8 -13 7 -312 -1 -326 -4 -6 -2 -11
4 -11 6 0 9 -4 6 -8 -2 -4 -6 -50 -7 -102 -2 -52 -5 -99 -7 -104 -3 -5 -6 -32
-7 -60 -3 -49 -7 -83 -21 -170 -4 -22 -8 -52 -9 -66 -1 -14 -5 -32 -8 -40 -5
-14 -41 -164 -53 -220 -3 -13 -8 -27 -12 -30 -4 -3 -8 -12 -8 -20 -3 -32 -13
-69 -23 -88 -6 -11 -7 -22 -4 -26 3 -3 1 -6 -5 -6 -7 0 -11 -3 -10 -7 3 -11
-10 -50 -33 -100 -10 -24 -19 -47 -19 -51 0 -5 -17 -42 -37 -83 -41 -83 -38
-76 -48 -106 -4 -13 -12 -23 -17 -23 -5 0 -6 -4 -3 -10 3 -5 1 -10 -5 -10 -6
0 -8 -4 -5 -10 3 -5 1 -10 -6 -10 -7 0 -9 -3 -6 -7 4 -3 3 -11 -2 -17 -5 -6
-23 -38 -41 -71 -17 -33 -39 -66 -48 -72 -9 -7 -12 -13 -8 -13 6 0 -28 -56
-44 -70 -3 -3 -14 -21 -24 -40 -11 -19 -22 -37 -26 -40 -3 -3 -17 -21 -30 -40
-13 -19 -56 -75 -95 -125 -91 -114 -117 -169 -119 -246 0 -32 -3 -59 -6 -59
-3 0 -3 -27 0 -60 3 -33 3 -60 0 -60 -3 0 -3 -27 0 -60 3 -33 3 -60 0 -60 -3
0 -3 -27 0 -60 3 -33 3 -60 0 -60 -3 0 -4 -116 -3 -259 2 -227 0 -263 -15
-294 -35 -71 -104 -107 -202 -103 -28 1 -54 -2 -57 -6 -2 -5 -9 -6 -14 -3 -12
8 -148 10 -155 2 -3 -3 -18 -1 -32 4 -15 6 -29 6 -34 1 -5 -5 -26 -6 -47 -2
-20 4 -46 3 -57 0 -10 -4 -23 -5 -28 -2 -15 9 -57 9 -62 0 -3 -5 -10 -5 -17
-1 -16 10 -58 10 -63 1 -3 -5 -10 -5 -17 -1 -16 10 -58 10 -63 1 -3 -5 -10 -5
-17 -1 -16 10 -58 10 -63 1 -3 -5 -10 -5 -17 -1 -16 10 -58 10 -63 1 -3 -5
-10 -5 -17 -1 -16 10 -58 10 -63 1 -3 -5 -10 -5 -17 -1 -16 10 -58 10 -63 1
-3 -5 -10 -5 -17 -1 -16 10 -58 10 -63 1 -3 -5 -10 -5 -17 -1 -16 10 -58 10
-63 1 -3 -5 -10 -5 -17 -1 -16 10 -58 10 -63 1 -3 -5 -10 -5 -17 -1 -16 10
-58 10 -63 1 -3 -5 -10 -5 -17 -1 -16 10 -58 10 -63 1 -3 -5 -10 -5 -17 -1
-16 10 -58 10 -63 1 -3 -5 -10 -5 -17 -1 -16 10 -58 10 -63 1 -3 -5 -10 -5
-17 -1 -16 10 -58 10 -63 1 -3 -5 -10 -5 -17 -1 -13 8 -196 8 -204 0 -3 -3
-16 -1 -30 4 -17 6 -30 6 -38 -1 -6 -5 -14 -7 -17 -4 -8 7 -147 8 -154 1 -3
-3 -17 -1 -31 4 -17 6 -30 6 -38 -1 -6 -5 -14 -7 -17 -4 -8 7 -147 8 -154 1
-3 -3 -17 -1 -31 4 -17 6 -30 6 -38 -1 -6 -5 -14 -7 -17 -4 -8 7 -147 8 -154
1 -3 -3 -17 -1 -31 4 -17 6 -30 6 -38 -1 -6 -5 -14 -7 -17 -4 -8 7 -147 8
-154 1 -3 -3 -18 -1 -32 4 -15 6 -29 6 -34 1 -5 -5 -26 -6 -47 -2 -21 4 -47 3
-59 -1 -12 -5 -23 -5 -26 -1 -6 9 -48 8 -63 -1 -7 -4 -14 -4 -17 1 -5 9 -47 9
-63 -1 -7 -4 -14 -4 -17 1 -5 9 -47 9 -63 -1 -7 -4 -14 -4 -17 1 -5 9 -47 9
-63 -1 -7 -4 -14 -4 -17 1 -5 9 -47 9 -63 -1 -7 -4 -14 -4 -17 1 -5 9 -47 9
-63 -1 -7 -4 -14 -4 -17 1 -5 9 -47 9 -63 -1 -7 -4 -14 -4 -17 1 -3 5 -24 7
-48 5 -57 -5 -57 -5 -101 0 -20 3 -40 1 -43 -4 -3 -5 -10 -7 -15 -4 -7 5 -49
6 -159 5 -42 -1 -97 7 -110 15 -8 5 -18 10 -21 10 -12 0 -68 53 -62 59 4 3 1
6 -6 6 -7 0 -10 4 -7 9 4 5 0 11 -6 13 -10 4 -13 116 -15 514 -1 280 -4 516
-6 524 -18 80 -69 168 -144 246 -13 13 -23 25 -23 28 0 7 -30 45 -52 65 -10 8
-18 19 -18 23 0 4 -10 18 -22 31 -43 45 -88 98 -88 102 0 3 -6 13 -14 22 -32
39 -83 102 -116 143 -19 24 -40 48 -45 54 -6 6 -26 31 -44 56 -19 25 -39 50
-45 55 -6 6 -27 30 -46 55 -18 25 -41 53 -49 62 -29 32 -41 47 -41 54 0 4 -12
17 -27 30 -16 13 -25 24 -21 24 4 0 -3 10 -15 23 -19 20 -62 71 -107 129 -8
10 -23 29 -33 41 -10 12 -28 35 -40 50 -12 16 -37 46 -55 67 -18 21 -33 41
-33 44 1 3 -12 18 -27 33 -15 16 -41 46 -57 68 -16 22 -34 45 -40 50 -6 6 -29
33 -50 60 -21 28 -46 58 -54 67 -9 9 -29 35 -45 57 -17 23 -33 41 -38 41 -4 0
-8 5 -8 11 0 7 -10 22 -22 34 -13 13 -28 29 -33 37 -41 54 -92 114 -102 121
-7 4 -13 12 -13 18 0 5 -10 20 -22 33 -38 39 -58 66 -58 77 0 5 -4 7 -10 4 -5
-3 -10 0 -10 7 0 7 -19 33 -41 58 -22 25 -48 57 -57 72 -9 16 -20 28 -24 28
-4 0 -8 4 -8 10 0 9 -40 74 -62 100 -7 8 -12 17 -10 20 1 3 -6 14 -15 25 -9
11 -16 20 -14 20 1 0 0 12 -4 27 -4 16 -11 28 -16 28 -5 0 -9 7 -9 15 0 8 -4
23 -9 33 -8 15 -34 95 -37 115 -1 4 -2 9 -3 12 0 3 -1 6 -1 8 -1 1 -5 20 -10
42 -31 131 -33 328 -4 475 4 19 7 43 8 53 0 9 4 17 9 17 4 0 5 5 2 10 -3 6 -2
10 4 10 6 0 8 6 5 14 -3 8 0 17 5 21 6 3 9 11 5 16 -3 5 -1 15 4 22 5 7 15 29
22 50 6 20 25 62 41 92 16 30 26 55 22 55 -5 0 -3 4 3 8 6 4 30 36 54 71 23
35 50 73 59 85 26 32 144 148 186 181 21 17 43 35 49 40 42 39 99 55 79 22
-10 -16 -11 -117 0 -117 4 0 5 -5 1 -12 -9 -14 -12 -108 -4 -108 4 0 7 -7 7
-15 0 -8 -3 -12 -6 -10 -4 2 -6 -19 -6 -46 0 -27 3 -49 8 -49 4 0 5 -5 1 -12
-9 -14 -12 -108 -4 -108 4 0 7 -7 7 -15 0 -8 -3 -12 -6 -10 -4 2 -6 -19 -6
-46 0 -27 3 -49 8 -49 4 0 5 -5 1 -12 -9 -14 -12 -108 -4 -108 4 0 7 -7 7 -15
0 -8 -3 -12 -6 -10 -4 2 -6 -19 -6 -46 0 -27 4 -49 9 -49 5 0 5 -5 0 -12 -19
-26 -1 -140 30 -203 71 -144 223 -217 381 -183 39 8 109 41 131 62 6 6 21 18
33 26 11 8 21 20 21 27 0 7 5 13 10 13 6 0 10 7 10 15 0 8 4 15 9 15 5 0 18
28 29 63 20 62 21 83 21 3077 1 2693 3 3022 17 3070 8 30 18 65 21 78 3 12 9
22 14 22 5 0 9 7 9 15 0 8 9 24 20 35 11 11 17 20 13 20 -13 0 101 99 115 100
6 0 12 3 12 8 0 7 84 45 110 49 8 2 33 5 55 8 21 3 41 7 42 9 3 3 96 -1 154
-7z m1043 -155 c8 -37 20 -94 26 -126 10 -61 14 -484 4 -474 -3 3 -7 107 -8
229 -2 123 -6 231 -9 239 -3 8 -8 33 -11 55 -3 22 -15 72 -26 110 -33 110 -33
112 -12 72 11 -20 27 -67 36 -105z m561 21 c11 -18 24 -33 29 -33 4 0 17 -11
28 -25 11 -14 26 -25 34 -25 8 0 14 -4 14 -10 0 -5 3 -9 8 -8 4 1 21 -4 37
-11 17 -7 50 -16 75 -19 60 -9 2167 -7 2203 1 15 4 27 3 27 -2 0 -5 -19 -13
-42 -16 -24 -3 -533 -5 -1133 -3 -826 2 -1095 6 -1110 15 -11 7 -38 20 -59 29
-54 25 -131 101 -155 154 -28 61 -25 87 3 30 12 -25 30 -60 41 -77z m2664 28
c-28 -54 -139 -151 -139 -121 0 5 5 10 12 10 15 0 118 108 118 124 0 13 21 38
27 32 2 -2 -6 -22 -18 -45z m-5514 -151 c-2 -27 -15 -38 -15 -13 0 16 8 33 15
33 1 0 1 -9 0 -20z m5355 10 c-20 -13 -33 -13 -25 0 3 6 14 10 23 10 15 0 15
-2 2 -10z m-7310 -23 c591 0 1092 3 1113 7 21 4 37 3 37 -2 0 -5 -17 -12 -37
-16 -21 -3 -517 -6 -1103 -6 -586 0 -1082 3 -1102 6 -21 4 -38 11 -38 16 0 4
12 6 28 2 15 -3 511 -6 1102 -7z m1943 -74 c-3 -27 -7 -50 -9 -52 -6 -7 -4 66
2 83 11 28 13 17 7 -31z m1 -78 c-4 -8 -8 -15 -10 -15 -2 0 -4 7 -4 15 0 8 4
15 10 15 5 0 7 -7 4 -15z m-2 -75 c-2 -16 -6 -30 -8 -30 -2 0 -4 14 -4 30 0
17 4 30 8 30 5 0 7 -13 4 -30z m8 -99 c0 -6 -4 -13 -10 -16 -5 -3 -10 1 -10 9
0 9 5 16 10 16 6 0 10 -4 10 -9z m-13 -63 c-3 -7 -5 -2 -5 12 0 14 2 19 5 13
2 -7 2 -19 0 -25z m0 -85 c-2 -16 -4 -5 -4 22 0 28 2 40 4 28 2 -13 2 -35 0
-50z m2343 -63 c0 -22 -3 -40 -7 -40 -5 0 -8 18 -9 40 0 22 4 40 8 40 4 0 8
-18 8 -40z m-2330 -29 c0 -6 -4 -13 -10 -16 -5 -3 -10 1 -10 9 0 9 5 16 10 16
6 0 10 -4 10 -9z m2330 -116 c0 -52 -3 -95 -7 -95 -5 0 -7 42 -6 92 2 105 1
98 8 98 3 0 5 -43 5 -95z m-2343 53 c-3 -7 -5 -2 -5 12 0 14 2 19 5 13 2 -7 2
-19 0 -25z m0 -85 c-2 -16 -4 -5 -4 22 0 28 2 40 4 28 2 -13 2 -35 0 -50z m0
-85 c-2 -13 -4 -5 -4 17 -1 22 1 32 4 23 2 -10 2 -28 0 -40z m2343 -160 c0
-94 -3 -169 -6 -165 -4 3 -6 77 -6 164 1 180 0 173 7 173 3 0 5 -77 5 -172z
m-2330 73 c0 -6 -4 -13 -10 -16 -5 -3 -10 1 -10 9 0 9 5 16 10 16 6 0 10 -4
10 -9z m-13 -63 c-3 -7 -5 -2 -5 12 0 14 2 19 5 13 2 -7 2 -19 0 -25z m0 -85
c-2 -16 -4 -5 -4 22 0 28 2 40 4 28 2 -13 2 -35 0 -50z m13 -92 c0 -6 -4 -13
-10 -16 -5 -3 -10 1 -10 9 0 9 5 16 10 16 6 0 10 -4 10 -9z m2330 -51 c0 -22
-3 -40 -7 -40 -5 0 -8 18 -9 40 0 22 4 40 8 40 4 0 8 -18 8 -40z m-2343 -12
c-3 -7 -5 -2 -5 12 0 14 2 19 5 13 2 -7 2 -19 0 -25z m0 -85 c-2 -16 -4 -5 -4
22 0 28 2 40 4 28 2 -13 2 -35 0 -50z m2345 -321 c2 -116 -1 -182 -7 -182 -9
0 -12 534 -4 550 4 6 8 -135 11 -368z m-2332 229 c0 -6 -4 -13 -10 -16 -5 -3
-10 1 -10 9 0 9 5 16 10 16 6 0 10 -4 10 -9z m-13 -63 c-3 -7 -5 -2 -5 12 0
14 2 19 5 13 2 -7 2 -19 0 -25z m0 -85 c-2 -16 -4 -5 -4 22 0 28 2 40 4 28 2
-13 2 -35 0 -50z m13 -92 c0 -6 -4 -13 -10 -16 -5 -3 -10 1 -10 9 0 9 5 16 10
16 6 0 10 -4 10 -9z m-13 -63 c-3 -7 -5 -2 -5 12 0 14 2 19 5 13 2 -7 2 -19 0
-25z m2918 -17 c11 -5 -30 -8 -95 -8 -156 1 -325 -24 -409 -59 -49 -20 -61
-17 -18 5 77 39 251 68 422 69 44 0 89 -3 100 -7z m-2918 -68 c-2 -16 -4 -5
-4 22 0 28 2 40 4 28 2 -13 2 -35 0 -50z m3106 47 c48 -11 97 -26 109 -35 28
-19 25 -19 -37 1 -71 21 -204 46 -215 39 -5 -3 -11 -1 -15 5 -10 16 61 12 158
-10z m167 -60 c8 -5 11 -10 5 -10 -5 0 -17 5 -25 10 -8 5 -10 10 -5 10 6 0 17
-5 25 -10z m122 -52 c45 -23 89 -49 97 -57 9 -9 50 -41 91 -72 41 -31 90 -78
109 -105 l35 -49 -55 55 c-31 30 -71 69 -90 85 -47 42 -189 137 -189 128 0 -5
-4 -3 -8 2 -10 14 -49 35 -66 35 -8 0 -18 5 -21 10 -12 19 17 10 97 -32z
m-3382 -27 c0 -6 -4 -13 -10 -16 -5 -3 -10 1 -10 9 0 9 5 16 10 16 6 0 10 -4
10 -9z m-13 -63 c-3 -7 -5 -2 -5 12 0 14 2 19 5 13 2 -7 2 -19 0 -25z m0 -85
c-2 -16 -4 -5 -4 22 0 28 2 40 4 28 2 -13 2 -35 0 -50z m0 -55 c-3 -8 -6 -5
-6 6 -1 11 2 17 5 13 3 -3 4 -12 1 -19z m6 -68 c-3 -11 -7 -20 -9 -20 -2 0 -4
9 -4 20 0 11 4 20 9 20 5 0 7 -9 4 -20z m3821 -115 c27 -47 46 -89 42 -92 -3
-3 -11 8 -17 25 -6 18 -15 32 -21 32 -5 0 -6 5 -3 10 3 6 1 10 -4 10 -6 0 -11
7 -11 15 0 8 -4 15 -10 15 -5 0 -10 6 -10 13 0 7 -15 30 -34 52 -19 22 -32 44
-29 49 8 13 39 -28 97 -129z m-3821 35 c-3 -11 -7 -20 -9 -20 -2 0 -4 9 -4 20
0 11 4 20 9 20 5 0 7 -9 4 -20z m4551 -48 c3 -5 -37 -8 -89 -8 -51 1 -91 4
-88 8 6 11 171 10 177 0z m-195 -6 c-2 -2 -29 -7 -59 -9 -30 -3 -62 -8 -70
-11 -8 -2 -34 -7 -57 -10 -43 -5 -231 -71 -247 -87 -16 -14 -43 -10 -50 7 -9
24 2 31 17 11 11 -15 17 -14 72 13 79 39 138 58 227 74 70 13 176 21 167 12z
m301 -6 c0 -5 -14 -7 -32 -3 -46 8 -48 13 -5 13 21 0 37 -4 37 -10z m-4657
-20 c-3 -11 -7 -20 -9 -20 -2 0 -4 9 -4 20 0 11 4 20 9 20 5 0 7 -9 4 -20z
m4817 -6 c30 -9 92 -33 138 -55 46 -21 85 -39 88 -39 6 0 97 -59 134 -86 63
-47 231 -227 260 -278 18 -31 35 -56 40 -56 8 0 80 -159 100 -223 7 -21 9 -41
6 -44 -3 -4 -6 1 -6 10 0 10 -4 17 -10 17 -5 0 -9 3 -8 8 3 14 -14 82 -21 82
-4 0 -13 16 -20 36 -25 70 -135 240 -163 252 -5 2 -8 8 -8 13 0 12 -119 129
-131 129 -6 0 -7 5 -4 10 3 6 0 10 -8 10 -8 0 -27 12 -43 26 -16 14 -42 32
-59 41 -16 9 -32 19 -35 22 -3 4 -32 19 -65 35 -33 15 -71 33 -85 40 -22 12
-75 28 -82 25 -2 0 -16 5 -33 11 -28 11 -39 14 -101 25 -15 2 -29 7 -33 11 -9
10 85 -4 149 -22z m-4817 -74 c-3 -11 -7 -20 -9 -20 -2 0 -4 9 -4 20 0 11 4
20 9 20 5 0 7 -9 4 -20z m0 -80 c-3 -11 -7 -20 -9 -20 -2 0 -4 9 -4 20 0 11 4
20 9 20 5 0 7 -9 4 -20z m0 -80 c-3 -11 -7 -20 -9 -20 -2 0 -4 9 -4 20 0 11 4
20 9 20 5 0 7 -9 4 -20z m0 -80 c-3 -11 -7 -20 -9 -20 -2 0 -4 9 -4 20 0 11 4
20 9 20 5 0 7 -9 4 -20z m-1 -100 c-2 -22 -6 -40 -8 -40 -2 0 -4 18 -4 40 0
22 3 40 8 40 4 0 6 -18 4 -40z m8 -109 c0 -6 -4 -13 -10 -16 -5 -3 -10 1 -10
9 0 9 5 16 10 16 6 0 10 -4 10 -9z m-13 -63 c-3 -7 -5 -2 -5 12 0 14 2 19 5
13 2 -7 2 -19 0 -25z m0 -85 c-2 -16 -4 -5 -4 22 0 28 2 40 4 28 2 -13 2 -35
0 -50z m6358 -91 c17 -12 14 -12 -25 -5 -77 13 -425 9 -443 -5 -10 -9 -17 -10
-22 -2 -14 23 39 28 270 27 146 -2 205 -6 220 -15z m-6345 -1 c0 -6 -4 -13
-10 -16 -5 -3 -10 1 -10 9 0 9 5 16 10 16 6 0 10 -4 10 -9z m5820 -15 c0 -11
-19 -15 -25 -6 -3 5 1 10 9 10 9 0 16 -2 16 -4z m600 -6 c20 -6 21 -8 5 -8
-11 0 -29 3 -40 8 -25 11 1 11 35 0z m-6433 -42 c-3 -7 -5 -2 -5 12 0 14 2 19
5 13 2 -7 2 -19 0 -25z m5763 28 c0 -2 -9 -6 -20 -9 -11 -3 -20 -1 -20 4 0 5
9 9 20 9 11 0 20 -2 20 -4z m781 -15 c88 -30 162 -67 194 -95 17 -14 25 -26
18 -26 -6 0 -14 4 -18 9 -8 14 -153 85 -213 105 -28 10 -52 19 -52 22 0 8 16
4 71 -15z m-831 -2 c0 -5 -4 -8 -9 -4 -5 3 -12 1 -16 -5 -4 -6 -11 -8 -16 -5
-5 4 -9 1 -9 -6 0 -7 -3 -9 -6 -6 -4 3 -16 2 -26 -4 -14 -8 -23 -8 -31 0 -8 8
-5 11 10 11 11 0 36 7 54 15 41 17 49 18 49 4z m-5713 -96 c-2 -16 -4 -5 -4
22 0 28 2 40 4 28 2 -13 2 -35 0 -50z m6822 -50 c49 -35 101 -85 101 -95 0 -5
-13 5 -30 22 -16 17 -30 27 -30 23 0 -4 -5 0 -11 10 -5 9 -14 17 -19 17 -5 0
-21 11 -36 25 -35 33 -20 32 25 -2z m-6809 -42 c0 -6 -4 -13 -10 -16 -5 -3
-10 1 -10 9 0 9 5 16 10 16 6 0 10 -4 10 -9z m-13 -63 c-3 -7 -5 -2 -5 12 0
14 2 19 5 13 2 -7 2 -19 0 -25z m7072 -143 c42 -46 142 -244 141 -278 -1 -18
-29 35 -30 56 0 9 -5 17 -12 17 -6 0 -9 3 -5 6 3 3 -4 22 -15 42 -11 21 -30
55 -41 77 -12 22 -32 50 -44 62 -13 12 -23 26 -23 30 0 4 -17 26 -38 48 -20
22 -46 52 -56 65 -17 22 70 -67 123 -125z m-7072 58 c-2 -16 -4 -5 -4 22 0 28
2 40 4 28 2 -13 2 -35 0 -50z m13 -92 c0 -6 -4 -13 -10 -16 -5 -3 -10 1 -10 9
0 9 5 16 10 16 6 0 10 -4 10 -9z m-13 -63 c-3 -7 -5 -2 -5 12 0 14 2 19 5 13
2 -7 2 -19 0 -25z m0 -85 c-2 -16 -4 -5 -4 22 0 28 2 40 4 28 2 -13 2 -35 0
-50z m13 -92 c0 -6 -4 -13 -10 -16 -5 -3 -10 1 -10 9 0 9 5 16 10 16 6 0 10
-4 10 -9z m7233 -78 c22 -81 37 -177 37 -247 0 -79 -6 -68 -13 24 -3 41 -9 89
-12 105 -8 40 -34 141 -41 160 -3 8 -2 15 4 15 5 0 17 -26 25 -57z m-7246 15
c-3 -7 -5 -2 -5 12 0 14 2 19 5 13 2 -7 2 -19 0 -25z m0 -85 c-2 -16 -4 -5 -4
22 0 28 2 40 4 28 2 -13 2 -35 0 -50z m0 -55 c-3 -8 -6 -5 -6 6 -1 11 2 17 5
13 3 -3 4 -12 1 -19z m6 -68 c-3 -11 -7 -20 -9 -20 -2 0 -4 9 -4 20 0 11 4 20
9 20 5 0 7 -9 4 -20z m0 -80 c-3 -11 -7 -20 -9 -20 -2 0 -4 9 -4 20 0 11 4 20
9 20 5 0 7 -9 4 -20z m0 -80 c-3 -11 -7 -20 -9 -20 -2 0 -4 9 -4 20 0 11 4 20
9 20 5 0 7 -9 4 -20z m7274 -2 c-3 -8 -6 -5 -6 6 -1 11 2 17 5 13 3 -3 4 -12
1 -19z m0 -60 c-3 -8 -6 -5 -6 6 -1 11 2 17 5 13 3 -3 4 -12 1 -19z m-7274
-18 c-3 -11 -7 -20 -9 -20 -2 0 -4 9 -4 20 0 11 4 20 9 20 5 0 7 -9 4 -20z
m7274 -42 c-3 -8 -6 -5 -6 6 -1 11 2 17 5 13 3 -3 4 -12 1 -19z m-7319 -21
c-24 -18 -99 -75 -168 -127 -69 -52 -126 -98 -128 -102 -2 -5 -10 -8 -17 -8
-7 0 -15 -4 -17 -8 -1 -4 -41 -37 -88 -72 -111 -85 -125 -97 -178 -147 -25
-24 -48 -43 -53 -43 -4 0 -9 -4 -11 -9 -1 -6 -31 -39 -65 -74 -35 -36 -63 -68
-63 -71 0 -4 -11 -19 -25 -34 -39 -41 -155 -219 -173 -263 -8 -21 -19 -39 -24
-39 -4 0 -8 -5 -8 -10 0 -6 -13 -40 -30 -75 -16 -35 -30 -68 -30 -73 0 -4 -7
-17 -15 -28 -13 -18 -14 -17 -6 11 11 41 72 179 81 185 4 3 22 34 40 70 31 63
78 136 107 169 8 9 40 50 72 91 32 41 92 107 133 146 88 84 344 292 373 304
11 4 37 24 58 44 21 19 61 51 90 70 29 20 77 56 107 81 30 25 61 45 68 45 8 0
-6 -15 -30 -33z m7319 -39 c-3 -8 -6 -5 -6 6 -1 11 2 17 5 13 3 -3 4 -12 1
-19z m0 -70 c-3 -7 -5 -2 -5 12 0 14 2 19 5 13 2 -7 2 -19 0 -25z m0 -40 c-3
-8 -6 -5 -6 6 -1 11 2 17 5 13 3 -3 4 -12 1 -19z m0 -40 c-3 -8 -6 -5 -6 6 -1
11 2 17 5 13 3 -3 4 -12 1 -19z m0 -40 c-3 -8 -6 -5 -6 6 -1 11 2 17 5 13 3
-3 4 -12 1 -19z m0 -80 c-3 -7 -5 -2 -5 12 0 14 2 19 5 13 2 -7 2 -19 0 -25z
m0 -70 c-3 -8 -6 -5 -6 6 -1 11 2 17 5 13 3 -3 4 -12 1 -19z m0 -60 c-3 -8 -6
-5 -6 6 -1 11 2 17 5 13 3 -3 4 -12 1 -19z m0 -40 c-3 -8 -6 -5 -6 6 -1 11 2
17 5 13 3 -3 4 -12 1 -19z m0 -60 c-3 -8 -6 -5 -6 6 -1 11 2 17 5 13 3 -3 4
-12 1 -19z m0 -90 c-3 -8 -6 -5 -6 6 -1 11 2 17 5 13 3 -3 4 -12 1 -19z m0
-40 c-3 -8 -6 -5 -6 6 -1 11 2 17 5 13 3 -3 4 -12 1 -19z m0 -40 c-3 -8 -6 -5
-6 6 -1 11 2 17 5 13 3 -3 4 -12 1 -19z m0 -40 c-3 -8 -6 -5 -6 6 -1 11 2 17
5 13 3 -3 4 -12 1 -19z m0 -70 c-3 -8 -6 -5 -6 6 -1 11 2 17 5 13 3 -3 4 -12
1 -19z m0 -60 c-3 -8 -6 -5 -6 6 -1 11 2 17 5 13 3 -3 4 -12 1 -19z m0 -60
c-3 -8 -6 -5 -6 6 -1 11 2 17 5 13 3 -3 4 -12 1 -19z m0 -60 c-3 -8 -6 -5 -6
6 -1 11 2 17 5 13 3 -3 4 -12 1 -19z m0 -70 c-3 -7 -5 -2 -5 12 0 14 2 19 5
13 2 -7 2 -19 0 -25z m0 -40 c-3 -8 -6 -5 -6 6 -1 11 2 17 5 13 3 -3 4 -12 1
-19z m0 -40 c-3 -8 -6 -5 -6 6 -1 11 2 17 5 13 3 -3 4 -12 1 -19z m0 -40 c-3
-8 -6 -5 -6 6 -1 11 2 17 5 13 3 -3 4 -12 1 -19z m-8417 -28 c0 -5 -5 -10 -11
-10 -5 0 -7 5 -4 10 3 6 8 10 11 10 2 0 4 -4 4 -10z m-15 -30 c-3 -5 -8 -18
-10 -27 -9 -38 -23 -77 -24 -65 -2 25 21 102 31 102 5 0 6 -4 3 -10z m8432
-22 c-3 -7 -5 -2 -5 12 0 14 2 19 5 13 2 -7 2 -19 0 -25z m0 -70 c-3 -8 -6 -5
-6 6 -1 11 2 17 5 13 3 -3 4 -12 1 -19z m0 -60 c-3 -8 -6 -5 -6 6 -1 11 2 17
5 13 3 -3 4 -12 1 -19z m-8482 -15 c-8 -33 -10 -44 -20 -103 -4 -25 -9 -54
-11 -65 -17 -82 -24 -368 -11 -475 16 -130 18 -146 27 -175 16 -58 20 -85 12
-85 -12 0 -30 82 -48 228 -20 157 -13 391 16 567 11 66 20 123 20 128 0 4 5 7
11 7 7 0 9 -10 4 -27z m8482 -25 c-3 -8 -6 -5 -6 6 -1 11 2 17 5 13 3 -3 4
-12 1 -19z m0 -60 c-3 -8 -6 -5 -6 6 -1 11 2 17 5 13 3 -3 4 -12 1 -19z m0
-90 c-3 -8 -6 -5 -6 6 -1 11 2 17 5 13 3 -3 4 -12 1 -19z m0 -40 c-3 -8 -6 -5
-6 6 -1 11 2 17 5 13 3 -3 4 -12 1 -19z m0 -40 c-3 -8 -6 -5 -6 6 -1 11 2 17
5 13 3 -3 4 -12 1 -19z m0 -40 c-3 -8 -6 -5 -6 6 -1 11 2 17 5 13 3 -3 4 -12
1 -19z m0 -70 c-3 -8 -6 -5 -6 6 -1 11 2 17 5 13 3 -3 4 -12 1 -19z m0 -60
c-3 -8 -6 -5 -6 6 -1 11 2 17 5 13 3 -3 4 -12 1 -19z m0 -60 c-3 -8 -6 -5 -6
6 -1 11 2 17 5 13 3 -3 4 -12 1 -19z m0 -60 c-3 -8 -6 -5 -6 6 -1 11 2 17 5
13 3 -3 4 -12 1 -19z m0 -70 c-3 -7 -5 -2 -5 12 0 14 2 19 5 13 2 -7 2 -19 0
-25z m0 -40 c-3 -8 -6 -5 -6 6 -1 11 2 17 5 13 3 -3 4 -12 1 -19z m0 -40 c-3
-8 -6 -5 -6 6 -1 11 2 17 5 13 3 -3 4 -12 1 -19z m0 -40 c-3 -8 -6 -5 -6 6 -1
11 2 17 5 13 3 -3 4 -12 1 -19z m0 -80 c-3 -7 -5 -2 -5 12 0 14 2 19 5 13 2
-7 2 -19 0 -25z m0 -70 c-3 -8 -6 -5 -6 6 -1 11 2 17 5 13 3 -3 4 -12 1 -19z
m-8446 -115 c6 -6 6 -14 1 -17 -9 -5 -33 59 -31 85 0 8 5 -2 11 -21 5 -19 14
-40 19 -47z m8446 55 c-3 -8 -6 -5 -6 6 -1 11 2 17 5 13 3 -3 4 -12 1 -19z m0
-40 c-3 -8 -6 -5 -6 6 -1 11 2 17 5 13 3 -3 4 -12 1 -19z m0 -60 c-3 -8 -6 -5
-6 6 -1 11 2 17 5 13 3 -3 4 -12 1 -19z m-8432 2 c3 -5 1 -10 -4 -10 -6 0 -11
5 -11 10 0 6 2 10 4 10 3 0 8 -4 11 -10z m11 -41 c1 -5 2 -10 4 -11 1 -2 3
-11 5 -22 2 -10 8 -23 14 -29 6 -6 11 -19 11 -29 0 -10 5 -18 10 -18 6 0 10
-6 10 -12 0 -7 14 -42 31 -78 26 -55 27 -62 9 -42 -22 23 -109 224 -110 251 0
15 14 6 16 -10z m8421 -51 c-3 -8 -6 -5 -6 6 -1 11 2 17 5 13 3 -3 4 -12 1
-19z m0 -40 c-3 -8 -6 -5 -6 6 -1 11 2 17 5 13 3 -3 4 -12 1 -19z m0 -40 c-3
-8 -6 -5 -6 6 -1 11 2 17 5 13 3 -3 4 -12 1 -19z m0 -40 c-3 -8 -6 -5 -6 6 -1
11 2 17 5 13 3 -3 4 -12 1 -19z m0 -70 c-3 -8 -6 -5 -6 6 -1 11 2 17 5 13 3
-3 4 -12 1 -19z m-8278 -60 c8 -18 21 -39 28 -46 7 -8 11 -18 8 -23 -4 -5 -3
-9 2 -9 4 0 30 -32 58 -70 27 -39 53 -70 57 -70 4 0 8 -6 8 -13 0 -7 18 -32
40 -56 22 -23 40 -46 40 -49 0 -4 15 -23 33 -43 17 -19 45 -53 61 -75 17 -21
32 -41 35 -44 4 -3 24 -27 46 -55 21 -27 42 -52 45 -55 3 -3 21 -25 40 -50 19
-25 41 -52 49 -61 9 -9 23 -27 31 -39 8 -12 22 -30 31 -39 8 -9 33 -38 55 -66
21 -27 41 -52 44 -55 3 -3 32 -39 65 -80 33 -41 62 -77 65 -80 3 -3 21 -25 40
-50 19 -25 42 -52 52 -61 10 -9 18 -20 18 -24 0 -7 40 -57 95 -117 14 -15 25
-30 25 -33 0 -4 6 -12 13 -19 7 -8 29 -32 48 -56 18 -23 41 -50 49 -60 8 -9
26 -32 40 -50 14 -18 32 -40 40 -50 8 -10 26 -32 40 -51 14 -18 33 -40 43 -48
9 -9 17 -19 17 -23 0 -5 8 -16 18 -26 17 -19 29 -33 149 -182 37 -47 70 -87
73 -90 3 -3 40 -49 83 -103 l79 -97 1 -450 c1 -248 -1 -450 -5 -450 -5 0 -8
201 -8 446 l0 445 -27 37 c-15 20 -32 42 -38 47 -27 25 -105 123 -105 132 0 5
-14 22 -31 39 -17 16 -58 65 -92 109 -33 44 -66 84 -73 88 -7 4 -29 31 -48 60
-19 29 -52 71 -73 94 -21 23 -63 74 -93 114 -30 39 -62 79 -71 88 -38 40 -109
129 -109 137 0 5 -17 26 -39 46 -21 21 -51 57 -66 80 -16 24 -48 63 -71 88
-24 25 -56 64 -71 87 -15 23 -47 63 -70 90 -23 26 -94 113 -157 193 -64 80
-134 166 -157 191 -23 26 -55 66 -70 89 -16 24 -49 64 -74 89 -25 25 -45 50
-45 56 0 5 -28 44 -61 85 -53 66 -139 198 -139 214 0 17 17 2 29 -26z m8278 0
c-3 -8 -6 -5 -6 6 -1 11 2 17 5 13 3 -3 4 -12 1 -19z m-7 -358 c-16 -159 -39
-303 -51 -315 -10 -10 -9 9 4 70 2 11 7 41 11 66 4 25 9 57 11 70 10 52 21
201 26 349 l3 85 4 -105 c2 -58 -2 -157 -8 -220z m-66 -389 c-4 -17 -9 -30
-11 -27 -3 2 -2 19 2 36 9 41 17 33 9 -9z m-21 -98 c-3 -18 -9 -33 -13 -33 -5
0 -4 15 1 32 5 18 9 35 9 37 0 2 2 2 4 0 2 -2 1 -19 -1 -36z m-24 -97 c-6 -25
-15 -46 -19 -46 -5 0 -1 22 8 50 19 61 27 59 11 -4z m-49 -175 c-17 -55 -36
-103 -41 -106 -12 -8 -13 -11 25 103 19 56 32 102 30 102 -3 0 -2 5 2 12 20
32 12 -19 -16 -111z m-66 -180 c-8 -29 -19 -49 -25 -45 -6 3 -6 10 -1 17 5 7
15 29 22 50 18 57 22 38 4 -22z m-24 -66 c0 -2 -7 -21 -16 -42 -47 -110 -68
-153 -76 -153 -4 0 -8 -4 -8 -9 0 -20 -113 -244 -136 -268 -13 -14 -24 -23
-24 -20 0 8 64 111 73 118 5 3 8 9 8 13 -1 3 32 75 73 158 41 84 78 165 81
181 4 15 11 27 16 27 5 0 9 -2 9 -5z m-299 -579 c-23 -37 -41 -70 -41 -75 0
-5 -12 -22 -28 -38 -32 -33 -82 -99 -82 -108 0 -3 -16 -27 -35 -52 l-35 -46
-1 -396 c-1 -218 -4 -407 -9 -421 -4 -14 -7 166 -6 400 l1 425 45 59 c25 32
56 75 69 95 13 20 27 38 31 41 12 9 80 120 73 120 -4 0 2 7 13 15 10 8 16 15
12 15 -4 0 0 9 9 20 32 37 24 12 -16 -54z m-244 -1208 c-3 -7 -5 -2 -5 12 0
14 2 19 5 13 2 -7 2 -19 0 -25z m-5703 -11 c3 -15 8 -39 12 -54 3 -15 7 -30
10 -35 3 -4 1 -8 -4 -8 -10 0 -32 75 -32 111 0 28 7 22 14 -14z m5688 -59 c-6
-6 -7 0 -4 19 5 21 7 23 10 9 2 -10 0 -22 -6 -28z m-2 -28 c0 -5 -2 -10 -4
-10 -3 0 -8 5 -11 10 -3 6 -1 10 4 10 6 0 11 -4 11 -10z"/>
</g>
</svg>
